<svg xmlns="http://www.w3.org/2000/svg" viewBox="0 0 332.64 55.41">
  <g id="Layer_2" data-name="Layer 2">
    <g id="Layer_1-2" data-name="Layer 1">
      <g>
        <path d="M0,9.42C0,7.13.08,4.35,2.29,2.21A9.32,9.32,0,0,1,8.94,0H35.23c3.88,0,8.63.24,11.87,5.07,2.61,3.79,2.77,8.15,2.77,12.19s-.16,8.39-2.37,12.51c-1.43,2.69-4.12,5.69-10.45,5.69H29.92v.4L51,55.41H37.84l-18.21-18C18.52,36.34,17,34.36,17,32.77V31.51c0-2.22,1.66-3.8,4.67-3.8H32.14c1.82,0,4.27-.24,5.7-2.46,1.11-1.74,1.27-5.7,1.27-7.6,0-4.35-.87-6.57-2-7.68-1.66-1.66-4.19-1.66-5.85-1.66H14.33a3.56,3.56,0,0,0-2.77.87,3.47,3.47,0,0,0-1.11,3.09V55.41H0Z" style="fill: #9ca4ac"/>
        <path d="M81.48,13.46a12.21,12.21,0,0,1,8.71,3.24c1.74,1.82,3.09,5.23,3.09,9.9V48.37c0,1.51-.16,3.88-1.66,5.38s-3.8,1.66-5.78,1.66h-20c-2.3,0-5.23,0-7.6-2C54.8,50.43,54.57,45,54.57,42c0-3.72.39-7.44,3.56-10.21a10.76,10.76,0,0,1,7.68-2.46H84V26.36a6,6,0,0,0-1.19-4,5.45,5.45,0,0,0-4.52-1.82H57.66V13.46Zm-12.9,23a4.25,4.25,0,0,0-3.4,1.42c-.32.4-1,1.5-1,4.51,0,1.27.15,3.49,1.26,4.67a4.54,4.54,0,0,0,3,1.27H81.33a3.36,3.36,0,0,0,2-.48A1.92,1.92,0,0,0,84,46.08V36.42Z" style="fill: #9ca4ac"/>
        <path d="M118.45,55.41c-5.62,0-8.63-.95-11.24-3.08S103,47,103,41.72V20.58H97.23V13.46H103V0h9.26V13.46H124v7.12H112.27V37.45c0,2.85-.23,6.8,2.46,9,2.06,1.74,5.54,1.82,7.2,1.82h2.3v7.12Z" style="fill: #9ca4ac"/>
        <path d="M142.46,55.41c-4.27,0-9.34-.39-12.83-5.3-2.76-4-3-9.74-3-15.28,0-7.84.39-13.61,5-17.57s11.71-4,15.67-4c4.91,0,10,.24,13.85,2.69,4.91,3.09,5.94,8.31,5.94,13.62,0,2.14-.24,4.59-2,6.33a6,6,0,0,1-4.51,1.58H136.21a31,31,0,0,0,.55,5.78c1.19,4.51,5.07,5,8.47,5h20.51v7.12Zm13-25c1.82,0,2.05-1.35,2.05-2.45a7.07,7.07,0,0,0-2.69-5.62c-2.29-1.75-5.3-1.91-7.92-1.91-2.45,0-6.25-.07-8.78,2.77-1.9,2.14-1.82,4.44-1.9,7.21Z" style="fill: #9ca4ac"/>
        <path d="M225,48.29c0,2.85-1,4.59-2.06,5.46a9.14,9.14,0,0,1-5.38,1.66H194a19.52,19.52,0,0,1-12.9-4.35c-6.73-5.62-7.29-15.28-7.29-23,0-9.1.87-19.31,9-24.62,3.4-2.21,8.07-3.4,13.38-3.4h27.55V8.31H199.12c-6,0-10.14,2.14-12.27,6-1,1.74-2.3,5.38-2.3,13.38s1.34,11.88,2.22,13.61c2.29,4.6,6.17,5.78,10.61,5.78h13.53a3.44,3.44,0,0,0,2.77-.87,3.7,3.7,0,0,0,.87-2.85V28.26H225Z" style="fill: #f99d1c"/>
        <path d="M257.94,13.46a12.23,12.23,0,0,1,8.71,3.24c1.74,1.82,3.08,5.23,3.08,9.9V48.37c0,1.51-.16,3.88-1.66,5.38s-3.8,1.66-5.78,1.66h-20c-2.29,0-5.22,0-7.6-2C231.26,50.43,231,45,231,42c0-3.72.4-7.44,3.56-10.21a10.78,10.78,0,0,1,7.68-2.46h18.21V26.36a6,6,0,0,0-1.18-4,5.45,5.45,0,0,0-4.52-1.82H234.11V13.46Zm-12.9,23a4.27,4.27,0,0,0-3.41,1.42c-.32.4-1,1.5-1,4.51,0,1.27.16,3.49,1.27,4.67a4.54,4.54,0,0,0,3,1.27h12.9a3.4,3.4,0,0,0,2.06-.48,1.94,1.94,0,0,0,.63-1.73V36.42Z" style="fill: #f99d1c"/>
        <path d="M277.11,0h9.27V7.36h-9.27Zm0,13.46h9.27V55.41h-9.27Z" style="fill: #f99d1c"/>
        <path d="M294.24,19.87a6.37,6.37,0,0,1,1.35-4.51c1.74-2,4.59-1.9,6.41-1.9h14.8c4.36,0,8.4.4,11.72,3.4,2.22,2,4.12,5.15,4.12,10.93V55.41h-9.26V30.56c0-2.77-.24-5.46-1.75-7.45-1.34-1.74-3.24-2.53-6.65-2.53h-9.42a2,2,0,0,0-1.58.48,2.47,2.47,0,0,0-.47,1.74V55.41h-9.27Z" style="fill: #f99d1c"/>
      </g>
    </g>
  </g>
</svg>
