<svg xmlns="http://www.w3.org/2000/svg" width="20.837" height="20.835" viewBox="0 0 20.837 20.835">
  <path id="pen" d="M18.443.809a2.869,2.869,0,0,0-4.054,0L13.373,1.83l-10.8,10.8-.023.023c-.006.006-.006.011-.011.011-.011.017-.029.034-.04.051s-.006.006-.006.011-.017.029-.029.046-.006.011-.011.017-.011.029-.017.046-.006.006-.006.011l-2.4,7.208a.564.564,0,0,0,.138.585.577.577,0,0,0,.407.166.677.677,0,0,0,.184-.029l7.2-2.4c.006,0,.006,0,.011-.006a.208.208,0,0,0,.051-.023.02.02,0,0,0,.012-.006c.017-.011.04-.023.057-.035s.034-.029.052-.04.011-.006.011-.011.017-.011.023-.023L20,6.412a2.869,2.869,0,0,0,0-4.054ZM7.777,17.026,3.786,13.035l9.989-9.989,3.991,3.991ZM3.223,14.1,6.71,17.583,1.474,19.326ZM19.188,5.609l-.608.614L14.589,2.231l.614-.613a1.72,1.72,0,0,1,2.431,0l1.56,1.56a1.726,1.726,0,0,1-.006,2.431Zm0,0" transform="translate(0.001 0.029)" fill="#cecece"/>
</svg>
