<svg id="share" xmlns="http://www.w3.org/2000/svg" width="23.15" height="25.465" viewBox="0 0 23.15 25.465">
  <path id="Path_12" data-name="Path 12" d="M321.508,19.448A3.42,3.42,0,1,1,318.088,16,3.434,3.434,0,0,1,321.508,19.448Zm0,0" transform="translate(-299.147 -15.204)" fill="#fff"/>
  <path id="Path_13" data-name="Path 13" d="M302.877,8.488a4.244,4.244,0,1,1,4.209-4.244A4.231,4.231,0,0,1,302.877,8.488Zm0-6.9a2.653,2.653,0,1,0,2.631,2.652,2.645,2.645,0,0,0-2.631-2.652Zm0,0" transform="translate(-283.936 0)" fill="#fff"/>
  <path id="Path_14" data-name="Path 14" d="M321.508,360.781a3.42,3.42,0,1,1-3.42-3.448A3.434,3.434,0,0,1,321.508,360.781Zm0,0" transform="translate(-299.147 -339.56)" fill="#fff"/>
  <path id="Path_15" data-name="Path 15" d="M302.877,349.82a4.244,4.244,0,1,1,4.209-4.244A4.231,4.231,0,0,1,302.877,349.82Zm0-6.9a2.653,2.653,0,1,0,2.631,2.653A2.645,2.645,0,0,0,302.877,342.924Zm0,0" transform="translate(-283.936 -324.356)" fill="#fff"/>
  <path id="Path_16" data-name="Path 16" d="M22.84,190.116a3.42,3.42,0,1,1-3.42-3.448A3.434,3.434,0,0,1,22.84,190.116Zm0,0" transform="translate(-15.211 -177.384)" fill="#fff"/>
  <path id="Path_17" data-name="Path 17" d="M4.209,179.156a4.244,4.244,0,0,1,0-8.488,4.244,4.244,0,0,1,0,8.488Zm0-6.9a2.653,2.653,0,1,0,2.631,2.652,2.645,2.645,0,0,0-2.631-2.652Zm0,0" transform="translate(0 -162.18)" fill="#fff"/>
  <path id="Path_18" data-name="Path 18" d="M115.4,97.951a1.049,1.049,0,0,1-.916-.536,1.068,1.068,0,0,1,.394-1.447l9.764-5.613a1.046,1.046,0,0,1,1.435.4,1.068,1.068,0,0,1-.394,1.447l-9.764,5.613a1.039,1.039,0,0,1-.52.139Zm0,0" transform="translate(-108.708 -85.727)" fill="#fff"/>
  <path id="Path_19" data-name="Path 19" d="M125.186,273.954a1.039,1.039,0,0,1-.52-.139L114.9,268.2a1.067,1.067,0,0,1-.393-1.447,1.046,1.046,0,0,1,1.435-.4l9.764,5.613a1.067,1.067,0,0,1,.393,1.447A1.051,1.051,0,0,1,125.186,273.954Zm0,0" transform="translate(-108.73 -252.978)" fill="#fff"/>
</svg>
