<svg xmlns="http://www.w3.org/2000/svg" width="20.615" height="20.615" viewBox="0 0 20.615 20.615">
  <g id="XMLID_1059_" transform="translate(0 0)">
    <g id="XMLID_1464_" transform="translate(0 0)">
      <g id="XMLID_1518_" transform="translate(0)">
        <path id="XMLID_163_" d="M19.1,7.253a2.894,2.894,0,0,0-2.877-3.21,6.592,6.592,0,0,0-12.456.889,3.882,3.882,0,0,0,.116,7.762H8.5a.4.4,0,0,0,0-.805H3.884A3.077,3.077,0,1,1,5.93,6.512a.4.4,0,1,0,.535-.6,3.878,3.878,0,0,0-1.878-.917A5.786,5.786,0,0,1,15.578,4.6.4.4,0,0,0,16,4.86a2.128,2.128,0,0,1,.223-.012A2.09,2.09,0,0,1,18.262,7.4a.4.4,0,0,0,.242.461,2.09,2.09,0,0,1-.786,4.028h-5.6a.4.4,0,1,0,0,.805h5.6A2.9,2.9,0,0,0,19.1,7.253Z" transform="translate(0 -0.004)" fill="#cecece"/>
      </g>
    </g>
    <g id="XMLID_868_" transform="translate(2.684 13.669)">
      <path id="XMLID_570_" d="M67.07,342.586a.4.4,0,0,1-.4-.4V339.9a.4.4,0,0,1,.805,0v2.282A.4.4,0,0,1,67.07,342.586Z" transform="translate(-66.667 -339.499)" fill="#cecece"/>
    </g>
    <g id="XMLID_870_" transform="translate(5.583 13.669)">
      <path id="XMLID_569_" d="M139.07,343.436a.4.4,0,0,1-.4-.4V339.9a.4.4,0,1,1,.805,0v3.132A.4.4,0,0,1,139.07,343.436Z" transform="translate(-138.667 -339.499)" fill="#cecece"/>
    </g>
    <g id="XMLID_872_" transform="translate(8.482 13.669)">
      <path id="XMLID_568_" d="M211.07,341.14a.4.4,0,0,1-.4-.4V339.9a.4.4,0,1,1,.805,0v.835A.4.4,0,0,1,211.07,341.14Z" transform="translate(-210.667 -339.499)" fill="#cecece"/>
    </g>
    <g id="XMLID_873_" transform="translate(11.381 13.669)">
      <path id="XMLID_567_" d="M283.07,343.076a.4.4,0,0,1-.4-.4V339.9a.4.4,0,1,1,.805,0v2.771A.4.4,0,0,1,283.07,343.076Z" transform="translate(-282.667 -339.499)" fill="#cecece"/>
    </g>
    <g id="XMLID_912_" transform="translate(14.28 13.669)">
      <path id="XMLID_566_" d="M355.07,342.438a.4.4,0,0,1-.4-.4V339.9a.4.4,0,0,1,.805,0v2.134A.4.4,0,0,1,355.07,342.438Z" transform="translate(-354.667 -339.499)" fill="#cecece"/>
    </g>
    <g id="XMLID_917_" transform="translate(14.28 17.561)">
      <path id="XMLID_565_" d="M355.07,439.218a.4.4,0,0,1-.4-.4v-2.248a.4.4,0,0,1,.805,0v2.248A.4.4,0,0,1,355.07,439.218Z" transform="translate(-354.667 -436.165)" fill="#cecece"/>
    </g>
    <g id="XMLID_922_" transform="translate(5.583 18.56)">
      <path id="XMLID_564_" d="M139.07,463.015a.4.4,0,0,1-.4-.4v-1.25a.4.4,0,1,1,.805,0v1.25A.4.4,0,0,1,139.07,463.015Z" transform="translate(-138.667 -460.96)" fill="#cecece"/>
    </g>
    <g id="XMLID_920_" transform="translate(8.482 16.263)">
      <path id="XMLID_563_" d="M211.07,406.1a.4.4,0,0,1-.4-.4v-1.372a.4.4,0,1,1,.805,0v1.372A.4.4,0,0,1,211.07,406.1Z" transform="translate(-210.667 -403.918)" fill="#cecece"/>
    </g>
    <g id="XMLID_919_" transform="translate(11.381 18.199)">
      <path id="XMLID_562_" d="M283.07,453.466a.4.4,0,0,1-.4-.4v-.658a.4.4,0,1,1,.805,0v.658A.4.4,0,0,1,283.07,453.466Z" transform="translate(-282.667 -452.003)" fill="#cecece"/>
    </g>
    <g id="XMLID_913_" transform="translate(17.179 13.669)">
      <path id="XMLID_561_" d="M427.07,342.586a.4.4,0,0,1-.4-.4V339.9a.4.4,0,1,1,.805,0v2.282A.4.4,0,0,1,427.07,342.586Z" transform="translate(-426.667 -339.499)" fill="#cecece"/>
    </g>
    <g id="XMLID_1056_" transform="translate(9.905 11.884)">
      <g id="XMLID_1058_">
        <path id="XMLID_560_" d="M246.406,295.972a.4.4,0,1,1,.285-.118A.406.406,0,0,1,246.406,295.972Z" transform="translate(-246.003 -295.167)" fill="#cecece"/>
      </g>
    </g>
  </g>
</svg>
